<svg width="29" height="29" viewBox="0 0 29 29" fill="none" xmlns="http://www.w3.org/2000/svg">
<g clip-path="url(#clip0_6_118)">
<path d="M22.6562 9.0625H6.34375C5.62294 9.06329 4.93187 9.34998 4.42218 9.85968C3.91248 10.3694 3.62579 11.0604 3.625 11.7812V17.2188C3.62555 17.6993 3.81669 18.16 4.15648 18.4998C4.49627 18.8396 4.95696 19.0307 5.4375 19.0312V25.375C5.43805 25.8555 5.62919 26.3162 5.96898 26.656C6.30877 26.9958 6.76946 27.1869 7.25 27.1875H10.875C11.3555 27.1869 11.8162 26.9958 12.156 26.656C12.4958 26.3162 12.6869 25.8555 12.6875 25.375V14.5H10.875V25.375H7.25V17.2188H5.4375V11.7812C5.43772 11.541 5.53327 11.3106 5.70317 11.1407C5.87308 10.9708 6.10346 10.8752 6.34375 10.875H22.6562C22.8965 10.8752 23.1269 10.9708 23.2968 11.1407C23.4667 11.3106 23.5623 11.541 23.5625 11.7812V17.2188H21.75V25.375H18.125V14.5H16.3125V25.375C16.3131 25.8555 16.5042 26.3162 16.844 26.656C17.1838 26.9958 17.6445 27.1869 18.125 27.1875H21.75C22.2305 27.1869 22.6912 26.9958 23.031 26.656C23.3708 26.3162 23.5619 25.8555 23.5625 25.375V19.0312C24.043 19.0307 24.5037 18.8396 24.8435 18.4998C25.1833 18.16 25.3744 17.6993 25.375 17.2188V11.7812C25.3742 11.0604 25.0875 10.3694 24.5778 9.85968C24.0681 9.34998 23.3771 9.06329 22.6562 9.0625Z" fill="#4F5052"/>
<path d="M9.0625 8.15625C8.34554 8.15625 7.64469 7.94365 7.04856 7.54533C6.45243 7.14701 5.98781 6.58086 5.71344 5.91848C5.43907 5.2561 5.36728 4.52723 5.50715 3.82405C5.64703 3.12087 5.99227 2.47495 6.49924 1.96799C7.0062 1.46102 7.65212 1.11578 8.3553 0.975905C9.05848 0.836034 9.78735 0.907821 10.4497 1.18219C11.1121 1.45656 11.6783 1.92118 12.0766 2.51731C12.4749 3.11344 12.6875 3.81429 12.6875 4.53125C12.6865 5.49235 12.3043 6.4138 11.6247 7.0934C10.945 7.773 10.0236 8.15524 9.0625 8.15625ZM9.0625 2.71875C8.70402 2.71875 8.35359 2.82505 8.05553 3.02421C7.75747 3.22337 7.52515 3.50645 7.38797 3.83764C7.25079 4.16883 7.21489 4.53326 7.28483 4.88485C7.35476 5.23644 7.52739 5.5594 7.78087 5.81288C8.03435 6.06637 8.35731 6.23899 8.7089 6.30892C9.06049 6.37886 9.42492 6.34297 9.75611 6.20578C10.0873 6.0686 10.3704 5.83629 10.5695 5.53822C10.7687 5.24016 10.875 4.88973 10.875 4.53125C10.8744 4.05072 10.6833 3.59002 10.3435 3.25023C10.0037 2.91044 9.54304 2.7193 9.0625 2.71875Z" fill="#4F5052"/>
<path d="M19.9375 8.15625C19.2205 8.15625 18.5197 7.94365 17.9236 7.54533C17.3274 7.14701 16.8628 6.58086 16.5884 5.91848C16.3141 5.2561 16.2423 4.52723 16.3822 3.82405C16.522 3.12087 16.8673 2.47495 17.3742 1.96799C17.8812 1.46102 18.5271 1.11578 19.2303 0.975905C19.9335 0.836034 20.6623 0.907821 21.3247 1.18219C21.9871 1.45656 22.5533 1.92118 22.9516 2.51731C23.3499 3.11344 23.5625 3.81429 23.5625 4.53125C23.5615 5.49235 23.1793 6.4138 22.4997 7.0934C21.8201 7.773 20.8986 8.15524 19.9375 8.15625ZM19.9375 2.71875C19.579 2.71875 19.2286 2.82505 18.9305 3.02421C18.6325 3.22337 18.4002 3.50645 18.263 3.83764C18.1258 4.16883 18.0899 4.53326 18.1598 4.88485C18.2298 5.23644 18.4024 5.5594 18.6559 5.81288C18.9094 6.06637 19.2323 6.23899 19.5839 6.30892C19.9355 6.37886 20.2999 6.34297 20.6311 6.20578C20.9623 6.0686 21.2454 5.83629 21.4445 5.53822C21.6437 5.24016 21.75 4.88973 21.75 4.53125C21.7495 4.05072 21.5583 3.59002 21.2185 3.25023C20.8787 2.91044 20.418 2.7193 19.9375 2.71875Z" fill="#4F5052"/>
</g>
<defs>
<clipPath id="clip0_6_118">
<rect width="29" height="29" fill="white"/>
</clipPath>
</defs>
</svg>
