<svg width="78" height="78" viewBox="0 0 78 78" fill="none" xmlns="http://www.w3.org/2000/svg">
<g clip-path="url(#clip0_128_117)">
<g filter="url(#filter0_dii_128_117)">
<path d="M11.8265 27.1734C5.29479 42.1809 12.1658 59.6418 27.1733 66.1735C42.1808 72.7052 59.6418 65.8342 66.1735 50.8267C72.7051 35.8192 65.8341 18.3582 50.8266 11.8265C35.8191 5.29483 18.3582 12.1659 11.8265 27.1734Z" fill="url(#paint0_linear_128_117)"/>
<path d="M14.8157 28.4743C9.00248 41.8309 15.1177 57.3712 28.4743 63.1843C41.8309 68.9975 57.3712 62.8823 63.1843 49.5257C68.9975 36.169 62.8823 20.6288 49.5257 14.8157C36.169 9.00247 20.6288 15.1177 14.8157 28.4743Z" stroke="url(#paint1_linear_128_117)" stroke-width="6.51982"/>
</g>
<g filter="url(#filter1_i_128_117)">
<path d="M38.9999 61.523C51.439 61.523 61.5229 51.4391 61.5229 39C61.5229 26.5609 51.439 16.477 38.9999 16.477C26.5608 16.477 16.4769 26.5609 16.4769 39C16.4769 51.4391 26.5608 61.523 38.9999 61.523Z" fill="#FFB823"/>
</g>
<g filter="url(#filter2_d_128_117)">
<path d="M27.7007 52.6292V26.0757H33.3908V36.5074H45.1501V26.0757H50.8402V52.6292H45.1501V41.8181H33.3908V52.6292H27.7007Z" fill="url(#paint2_linear_128_117)"/>
<mask id="mask0_128_117" style="mask-type:luminance" maskUnits="userSpaceOnUse" x="26" y="24" width="26" height="30">
<path d="M51.7749 24.6292H26.7749V53.6292H51.7749V24.6292Z" fill="white"/>
<path d="M27.7007 52.6292V26.0757H33.3908V36.5074H45.1501V26.0757H50.8402V52.6292H45.1501V41.8181H33.3908V52.6292H27.7007Z" fill="black"/>
</mask>
<g mask="url(#mask0_128_117)">
<path d="M27.7007 52.6292H27.108V53.2219H27.7007V52.6292ZM27.7007 26.0757V25.483H27.108V26.0757H27.7007ZM33.3908 26.0757H33.9835V25.483H33.3908V26.0757ZM33.3908 36.5074H32.7981V37.1001H33.3908V36.5074ZM45.1501 36.5074V37.1001H45.7429V36.5074H45.1501ZM45.1501 26.0757V25.483H44.5574V26.0757H45.1501ZM50.8402 26.0757H51.4329V25.483H50.8402V26.0757ZM50.8402 52.6292V53.2219H51.4329V52.6292H50.8402ZM45.1501 52.6292H44.5574V53.2219H45.1501V52.6292ZM45.1501 41.8181H45.7429V41.2254H45.1501V41.8181ZM33.3908 41.8181V41.2254H32.7981V41.8181H33.3908ZM33.3908 52.6292V53.2219H33.9835V52.6292H33.3908ZM28.2935 52.6292V26.0757H27.108V52.6292H28.2935ZM27.7007 26.6684H33.3908V25.483H27.7007V26.6684ZM32.7981 26.0757V36.5074H33.9835V26.0757H32.7981ZM33.3908 37.1001H45.1501V35.9147H33.3908V37.1001ZM45.7429 36.5074V26.0757H44.5574V36.5074H45.7429ZM45.1501 26.6684H50.8402V25.483H45.1501V26.6684ZM50.2475 26.0757V52.6292H51.4329V26.0757H50.2475ZM50.8402 52.0364H45.1501V53.2219H50.8402V52.0364ZM45.7429 52.6292V41.8181H44.5574V52.6292H45.7429ZM45.1501 41.2254H33.3908V42.4108H45.1501V41.2254ZM32.7981 41.8181V52.6292H33.9835V41.8181H32.7981ZM33.3908 52.0364H27.7007V53.2219H33.3908V52.0364Z" fill="#C2910E"/>
</g>
</g>
</g>
<defs>
<filter id="filter0_dii_128_117" x="6.39332" y="-13.7588" width="75.2893" height="91.2926" filterUnits="userSpaceOnUse" color-interpolation-filters="sRGB">
<feFlood flood-opacity="0" result="BackgroundImageFix"/>
<feColorMatrix in="SourceAlpha" type="matrix" values="0 0 0 0 0 0 0 0 0 0 0 0 0 0 0 0 0 0 127 0" result="hardAlpha"/>
<feOffset dx="-0.592711" dy="3.55626"/>
<feGaussianBlur stdDeviation="1.18542"/>
<feComposite in2="hardAlpha" operator="out"/>
<feColorMatrix type="matrix" values="0 0 0 0 0 0 0 0 0 0 0 0 0 0 0 0 0 0 0.25 0"/>
<feBlend mode="normal" in2="BackgroundImageFix" result="effect1_dropShadow_128_117"/>
<feBlend mode="normal" in="SourceGraphic" in2="effect1_dropShadow_128_117" result="shape"/>
<feColorMatrix in="SourceAlpha" type="matrix" values="0 0 0 0 0 0 0 0 0 0 0 0 0 0 0 0 0 0 127 0" result="hardAlpha"/>
<feOffset dx="13.0396" dy="-23.1157"/>
<feGaussianBlur stdDeviation="15.203"/>
<feComposite in2="hardAlpha" operator="arithmetic" k2="-1" k3="1"/>
<feColorMatrix type="matrix" values="0 0 0 0 0 0 0 0 0 0 0 0 0 0 0 0 0 0 0.49 0"/>
<feBlend mode="normal" in2="shape" result="effect2_innerShadow_128_117"/>
<feColorMatrix in="SourceAlpha" type="matrix" values="0 0 0 0 0 0 0 0 0 0 0 0 0 0 0 0 0 0 127 0" result="hardAlpha"/>
<feOffset dx="3.55626" dy="8.89066"/>
<feGaussianBlur stdDeviation="12.3284"/>
<feComposite in2="hardAlpha" operator="arithmetic" k2="-1" k3="1"/>
<feColorMatrix type="matrix" values="0 0 0 0 0.830512 0 0 0 0 0.804518 0 0 0 0 0.689786 0 0 0 1 0"/>
<feBlend mode="normal" in2="effect2_innerShadow_128_117" result="effect3_innerShadow_128_117"/>
</filter>
<filter id="filter1_i_128_117" x="16.4769" y="16.477" width="45.6387" height="45.6387" filterUnits="userSpaceOnUse" color-interpolation-filters="sRGB">
<feFlood flood-opacity="0" result="BackgroundImageFix"/>
<feBlend mode="normal" in="SourceGraphic" in2="BackgroundImageFix" result="shape"/>
<feColorMatrix in="SourceAlpha" type="matrix" values="0 0 0 0 0 0 0 0 0 0 0 0 0 0 0 0 0 0 127 0" result="hardAlpha"/>
<feOffset dx="0.592711" dy="0.592711"/>
<feGaussianBlur stdDeviation="0.592711"/>
<feComposite in2="hardAlpha" operator="arithmetic" k2="-1" k3="1"/>
<feColorMatrix type="matrix" values="0 0 0 0 0.977961 0 0 0 0 0.988235 0 0 0 0 0.47451 0 0 0 1 0"/>
<feBlend mode="normal" in2="shape" result="effect1_innerShadow_128_117"/>
</filter>
<filter id="filter2_d_128_117" x="26.9302" y="25.3052" width="25.8659" height="29.28" filterUnits="userSpaceOnUse" color-interpolation-filters="sRGB">
<feFlood flood-opacity="0" result="BackgroundImageFix"/>
<feColorMatrix in="SourceAlpha" type="matrix" values="0 0 0 0 0 0 0 0 0 0 0 0 0 0 0 0 0 0 127 0" result="hardAlpha"/>
<feOffset dx="0.592711" dy="0.592711"/>
<feGaussianBlur stdDeviation="0.385262"/>
<feComposite in2="hardAlpha" operator="out"/>
<feColorMatrix type="matrix" values="0 0 0 0 0 0 0 0 0 0 0 0 0 0 0 0 0 0 0.5 0"/>
<feBlend mode="normal" in2="BackgroundImageFix" result="effect1_dropShadow_128_117"/>
<feBlend mode="normal" in="SourceGraphic" in2="effect1_dropShadow_128_117" result="shape"/>
</filter>
<linearGradient id="paint0_linear_128_117" x1="28.035" y1="14.1061" x2="53.8176" y2="60.0414" gradientUnits="userSpaceOnUse">
<stop stop-color="#FEB41E"/>
<stop offset="0.411414" stop-color="#BA8315"/>
<stop offset="1" stop-color="#9C6B09"/>
</linearGradient>
<linearGradient id="paint1_linear_128_117" x1="25.3678" y1="15.5878" x2="55.5958" y2="62.4122" gradientUnits="userSpaceOnUse">
<stop stop-color="#F9DC5D"/>
<stop offset="0.913937" stop-color="#FFBD34"/>
</linearGradient>
<linearGradient id="paint2_linear_128_117" x1="34.1395" y1="23.772" x2="50.4065" y2="51.8519" gradientUnits="userSpaceOnUse">
<stop offset="0.425" stop-color="#FFE247"/>
<stop offset="1" stop-color="#D9A73E"/>
</linearGradient>
<clipPath id="clip0_128_117">
<rect width="78" height="78" fill="white"/>
</clipPath>
</defs>
</svg>
