<svg width="60" height="60" viewBox="0 0 60 60" fill="none" xmlns="http://www.w3.org/2000/svg">
<rect width="60" height="60" rx="30" fill="white"/>
<mask id="path-2-outside-1_202_142" maskUnits="userSpaceOnUse" x="32" y="32" width="15" height="11" fill="black">
<rect fill="white" x="32" y="32" width="15" height="11"/>
<path d="M33.72 38.88V37.74H35.58V35.88H36.72V37.74H38.58V38.88H36.72V40.74H35.58V38.88H33.72ZM42.968 36.36V34.8L44.528 33.6H45.788V42H44.408V35.28L42.968 36.36Z"/>
</mask>
<path d="M33.72 38.88V37.74H35.58V35.88H36.72V37.74H38.58V38.88H36.72V40.74H35.58V38.88H33.72ZM42.968 36.36V34.8L44.528 33.6H45.788V42H44.408V35.28L42.968 36.36Z" fill="black"/>
<path d="M33.72 38.88H32.72V39.88H33.72V38.88ZM33.72 37.74V36.74H32.72V37.74H33.72ZM35.58 37.74V38.74H36.58V37.74H35.58ZM35.58 35.88V34.88H34.58V35.88H35.58ZM36.72 35.88H37.72V34.88H36.72V35.88ZM36.72 37.74H35.72V38.74H36.72V37.74ZM38.58 37.74H39.58V36.74H38.58V37.74ZM38.58 38.88V39.88H39.58V38.88H38.58ZM36.72 38.88V37.88H35.72V38.88H36.72ZM36.72 40.74V41.74H37.72V40.74H36.72ZM35.58 40.74H34.58V41.74H35.58V40.74ZM35.58 38.88H36.58V37.88H35.58V38.88ZM34.72 38.88V37.74H32.72V38.88H34.72ZM33.72 38.74H35.58V36.74H33.72V38.74ZM36.58 37.74V35.88H34.58V37.74H36.58ZM35.58 36.88H36.72V34.88H35.58V36.88ZM35.72 35.88V37.74H37.72V35.88H35.72ZM36.72 38.74H38.58V36.74H36.72V38.74ZM37.58 37.74V38.88H39.58V37.74H37.58ZM38.58 37.88H36.72V39.88H38.58V37.88ZM35.72 38.88V40.74H37.72V38.88H35.72ZM36.72 39.74H35.58V41.74H36.72V39.74ZM36.58 40.74V38.88H34.58V40.74H36.58ZM35.58 37.88H33.72V39.88H35.58V37.88ZM42.968 36.36H41.968V38.36L43.568 37.16L42.968 36.36ZM42.968 34.8L42.3583 34.0074L41.968 34.3076V34.8H42.968ZM44.528 33.6V32.6H44.1878L43.9183 32.8074L44.528 33.6ZM45.788 33.6H46.788V32.6H45.788V33.6ZM45.788 42V43H46.788V42H45.788ZM44.408 42H43.408V43H44.408V42ZM44.408 35.28H45.408V33.28L43.808 34.48L44.408 35.28ZM43.968 36.36V34.8H41.968V36.36H43.968ZM43.5777 35.5926L45.1377 34.3926L43.9183 32.8074L42.3583 34.0074L43.5777 35.5926ZM44.528 34.6H45.788V32.6H44.528V34.6ZM44.788 33.6V42H46.788V33.6H44.788ZM45.788 41H44.408V43H45.788V41ZM45.408 42V35.28H43.408V42H45.408ZM43.808 34.48L42.368 35.56L43.568 37.16L45.008 36.08L43.808 34.48Z" fill="black" mask="url(#path-2-outside-1_202_142)"/>
<path d="M37.6377 15.3807V14H26.8422V15.3807H25.4933V16.7615V18.1422V19.5229V20.9037V22.2844V23.6651H24.1444V25.0459H22.7955V26.4266H20.0978V27.8073H18.7489V29.1881H16.0511V27.8073H14.7022V26.4266H13.3534V25.0459V23.6605H12V25.0413V26.422V27.8028V29.1835V30.5642V31.945V33.3303H13.3489V34.711H14.6978V36.0917H16.0466V37.4725H17.3955V38.8532H18.7444V40.2339V41.6147V43H21.4466V41.6147H20.0978V40.2339H21.4466V38.8532H22.7955V37.4725H25.4933V38.8532H29.5444V37.4679H26.8466V36.0872H28.1955V34.7064H29.5444V33.3257H30.8933V31.945V30.5642V29.1835V27.8028H32.2422V29.1835H33.5955V27.8028V26.4174H30.8978V25.0367V23.656H37.6466V22.2706H32.2511V20.8899H39V19.5092V18.1284V16.7477V15.3624H37.6511L37.6377 15.3807ZM29.5399 18.1422H28.191V16.7615H29.5399V18.1422Z" fill="black" stroke="black" stroke-width="0.460547" stroke-miterlimit="10"/>
</svg>
