<svg width="275" height="284" viewBox="0 0 275 284" fill="none" xmlns="http://www.w3.org/2000/svg">
<g filter="url(#filter0_d_1_737)">
<path d="M220.653 50.2417V41H146.689V50.2417H137.447V59.4833V68.725V77.9666V87.2083V96.4499V105.692H128.206V114.933H118.964V124.175H100.481V133.417H91.239V142.658H72.7556V133.417H63.514V124.175H54.2724V114.933V105.661H45V114.903V124.144V133.386V142.627V151.869V161.111V170.383H54.2416V179.625H63.4833V188.866H72.725V198.108H81.9666V207.35H91.2083V216.591V225.833V235.105H109.722V225.833H100.481V216.591H109.722V207.35H118.964V198.108H137.447V207.35H165.203V198.077H146.72V188.836H155.961V179.594H165.203V170.352H174.445V161.111V151.869V142.627V133.386H183.686V142.627H192.959V133.386V124.113H174.475V114.872V105.63H220.714V96.3578H183.748V87.1161H229.987V77.8745V68.6328V59.3912V50.1188H220.745L220.653 50.2417ZM165.172 68.725H155.931V59.4833H165.172V68.725Z" fill="white"/>
<path d="M220.653 50.2417V41H146.689V50.2417H137.447V59.4833V68.725V77.9666V87.2083V96.4499V105.692H128.206V114.933H118.964V124.175H100.481V133.417H91.239V142.658H72.7556V133.417H63.514V124.175H54.2724V114.933V105.661H45V114.903V124.144V133.386V142.627V151.869V161.111V170.383H54.2416V179.625H63.4833V188.866H72.725V198.108H81.9666V207.35H91.2083V216.591V225.833V235.105H109.722V225.833H100.481V216.591H109.722V207.35H118.964V198.108H137.447V207.35H165.203V198.077H146.72V188.836H155.961V179.594H165.203V170.352H174.445V161.111V151.869V142.627V133.386H183.686V142.627H192.959V133.386V124.113H174.475V114.872V105.63H220.714V96.3578H183.748V87.1161H229.987V77.8745V68.6328V59.3912V50.1188H220.745L220.653 50.2417ZM165.172 68.725H155.931V59.4833H165.172V68.725Z" stroke="white" stroke-width="3.07032" stroke-miterlimit="10"/>
</g>
<defs>
<filter id="filter0_d_1_737" x="0.264843" y="0.264843" width="274.457" height="283.576" filterUnits="userSpaceOnUse" color-interpolation-filters="sRGB">
<feFlood flood-opacity="0" result="BackgroundImageFix"/>
<feColorMatrix in="SourceAlpha" type="matrix" values="0 0 0 0 0 0 0 0 0 0 0 0 0 0 0 0 0 0 127 0" result="hardAlpha"/>
<feOffset dy="4"/>
<feGaussianBlur stdDeviation="21.6"/>
<feComposite in2="hardAlpha" operator="out"/>
<feColorMatrix type="matrix" values="0 0 0 0 1 0 0 0 0 1 0 0 0 0 1 0 0 0 0.33 0"/>
<feBlend mode="normal" in2="BackgroundImageFix" result="effect1_dropShadow_1_737"/>
<feBlend mode="normal" in="SourceGraphic" in2="effect1_dropShadow_1_737" result="shape"/>
</filter>
</defs>
</svg>
