<svg width="41" height="41" viewBox="0 0 41 41" fill="none" xmlns="http://www.w3.org/2000/svg">
<path d="M17.5068 19.1474L14.7576 16.3983C14.7576 16.3983 14.7452 16.3921 14.739 16.3921H4.28111C2.18209 16.3921 0.299787 17.8905 0.0335404 19.9709C-0.282241 22.46 1.67437 24.6086 4.10774 24.6086H14.739C14.739 24.6086 14.7514 24.6086 14.7576 24.6024L17.5068 21.8532C18.2498 21.1102 18.2498 19.8966 17.5068 19.1536V19.1474Z" fill="#9966FF"/>
<path d="M19.1482 17.5068C19.8913 18.2498 21.1048 18.2498 21.8479 17.5068L24.597 14.7576C24.597 14.7576 24.6032 14.7452 24.6032 14.739V4.2811C24.6032 2.18208 23.1048 0.299787 21.0244 0.0335402C18.5353 -0.282241 16.3867 1.67438 16.3867 4.10775V14.739C16.3867 14.739 16.3867 14.7514 16.3929 14.7576L19.1421 17.5068H19.1482Z" fill="#9966FF"/>
<path d="M36.8922 16.3924H26.2609C26.2609 16.3924 26.2485 16.3924 26.2424 16.3986L23.4932 19.1477C22.7502 19.8907 22.7502 21.1043 23.4932 21.8473L26.2424 24.5965C26.2424 24.5965 26.2547 24.6027 26.2609 24.6027H36.7189C38.8179 24.6027 40.7002 23.1043 40.9664 21.0239C41.2822 18.5348 39.3256 16.3862 36.8922 16.3862V16.3924Z" fill="#9966FF"/>
<path d="M21.8461 23.4942C21.1031 22.7512 19.8895 22.7512 19.1465 23.4942L16.3974 26.2434C16.3974 26.2434 16.3912 26.2558 16.3912 26.262V36.7199C16.3912 38.8189 17.8896 40.7012 19.97 40.9675C22.4591 41.2832 24.6077 39.3266 24.6077 36.8932V26.262C24.6077 26.262 24.6077 26.2496 24.6015 26.2434L21.8523 23.4942H21.8461Z" fill="#9966FF"/>
</svg>
