<svg width="29" height="31" viewBox="0 0 29 31" fill="none" xmlns="http://www.w3.org/2000/svg">
<path d="M26.6377 2.38073V1H15.8422V2.38073H14.4933V3.76147V5.1422V6.52294V7.90367V9.2844V10.6651H13.1444V12.0459H11.7955V13.4266H9.09776V14.8073H7.74888V16.1881H5.05112V14.8073H3.70224V13.4266H2.35336V12.0459V10.6605H1V12.0413V13.422V14.8028V16.1835V17.5642V18.945V20.3303H2.34888V21.711H3.69776V23.0917H5.04664V24.4725H6.39552V25.8532H7.7444V27.2339V28.6147V30H10.4466V28.6147H9.09776V27.2339H10.4466V25.8532H11.7955V24.4725H14.4933V25.8532H18.5444V24.4679H15.8466V23.0872H17.1955V21.7064H18.5444V20.3257H19.8933V18.945V17.5642V16.1835V14.8028H21.2422V16.1835H22.5955V14.8028V13.4174H19.8978V12.0367V10.656H26.6466V9.27064H21.2511V7.88991H28V6.50917V5.12844V3.74771V2.36239H26.6511L26.6377 2.38073ZM18.5399 5.1422H17.191V3.76147H18.5399V5.1422Z" fill="#4F5052" stroke="#4F5052" stroke-width="0.460547" stroke-miterlimit="10"/>
</svg>
